<svg width="81" height="72" viewBox="0 0 81 72" fill="none" xmlns="http://www.w3.org/2000/svg">
<path d="M80.4812 32.1161C80.5557 34.3891 80.4439 37.5935 79.5031 41.2451C75.8328 55.5348 60.9936 71.1845 40.6583 71.1845C22.009 71.1845 6.33138 58.4784 1.81346 41.2451C0.956453 37.9848 0.5 34.5567 0.5 31.0262C0.5 36.6713 5.07381 41.2451 10.7189 41.2451H22.7356C26.8996 52.6564 37.8544 60.8073 50.7188 60.8073C65.0644 60.8073 75.1435 50.43 78.7019 41.2451C80.0527 37.7612 80.3601 34.1655 80.3601 34.1655C80.4439 33.3178 80.4719 32.6099 80.4812 32.1161Z" fill="#FCFCFE" stroke="#13293D" stroke-miterlimit="10"/>
<path d="M61.9158 3.43433H58.4784C62.7542 6.05193 65.6046 10.7655 65.6046 16.1497C65.6046 24.3751 58.9349 31.0356 50.7188 31.0356H0.5C0.5 36.6806 5.07381 41.2545 10.7189 41.2545H22.7356C26.8996 52.6657 37.8544 60.8166 50.7188 60.8166C63.5832 60.8166 74.538 52.6657 78.702 41.2545C79.8664 38.0686 80.4998 34.622 80.4998 31.0356C80.4998 18.5438 72.8147 7.85909 61.9158 3.43433ZM35.8236 45.0365C33.737 45.0365 32.0416 43.3411 32.0416 41.2451C32.0416 39.1492 33.737 37.4631 35.8236 37.4631C37.9102 37.4631 39.6149 39.1585 39.6149 41.2451C39.6149 43.3318 37.9196 45.0365 35.8236 45.0365Z" fill="#13293D" stroke="#13293D" stroke-miterlimit="10"/>
<path d="M60.1926 3.42499L52.6379 3.42499C51.2872 3.42499 50.1973 2.3351 50.1973 0.984383V0.499998L57.752 0.499998C59.1027 0.499998 60.1926 1.58988 60.1926 2.9406V3.42499Z" fill="#13293D" stroke="#13293D" stroke-miterlimit="10"/>
<path d="M62.9496 0.509308H70.5044V0.993693C70.5044 2.34441 69.4145 3.4343 68.0638 3.4343H60.509V2.94991C60.509 1.59919 61.5989 0.509308 62.9496 0.509308Z" fill="#13293D" stroke="#13293D" stroke-miterlimit="10"/>
</svg>
