<svg width="69" height="61" viewBox="0 0 69 61" fill="none" xmlns="http://www.w3.org/2000/svg">
<path d="M68.2556 27.2834C68.3187 29.2089 68.2241 31.9236 67.427 35.017C64.3178 47.1224 51.7468 60.38 34.5198 60.38C18.7212 60.38 5.44002 49.6161 1.61269 35.017C0.886682 32.255 0.5 29.351 0.5 26.3601C0.5 31.1423 4.37468 35.017 9.15688 35.017H19.3368C22.8642 44.684 32.1445 51.5889 43.0426 51.5889C55.1953 51.5889 63.7338 42.7979 66.7484 35.017C67.8926 32.0656 68.153 29.0195 68.153 29.0195C68.224 28.3014 68.2477 27.7017 68.2556 27.2834Z" stroke="#F2F4FA" stroke-miterlimit="10"/>
<path d="M52.528 2.98584H49.6161C53.2383 5.20333 55.653 9.19637 55.653 13.7576C55.653 20.7257 50.0028 26.3681 43.0426 26.3681H0.5C0.5 31.1503 4.37468 35.025 9.15688 35.025H19.3368C22.8642 44.6919 32.1445 51.5969 43.0426 51.5969C53.9406 51.5969 63.2209 44.6919 66.7484 35.025C67.7348 32.3261 68.2714 29.4063 68.2714 26.3681C68.2714 15.7857 61.761 6.73426 52.528 2.98584ZM30.4242 38.2289C28.6565 38.2289 27.2203 36.7926 27.2203 35.0171C27.2203 33.2415 28.6565 31.8132 30.4242 31.8132C32.1919 31.8132 33.636 33.2494 33.636 35.0171C33.636 36.7847 32.1998 38.2289 30.4242 38.2289Z" stroke="#F2F4FA" stroke-miterlimit="10"/>
<path d="M51.0682 2.97791L44.6683 2.97791C43.524 2.97791 42.6007 2.05461 42.6007 0.91036V0.500016L49.0007 0.500016C50.1449 0.500016 51.0682 1.42331 51.0682 2.56756V2.97791Z" stroke="#F2F4FA" stroke-miterlimit="10"/>
<path d="M53.4039 0.507935H59.8039V0.918279C59.8039 2.06253 58.8806 2.98582 57.7363 2.98582H51.3364V2.57548C51.3364 1.43123 52.2597 0.507935 53.4039 0.507935Z" stroke="#F2F4FA" stroke-miterlimit="10"/>
</svg>
