<svg width="60" height="60" viewBox="0 0 60 60" fill="none" xmlns="http://www.w3.org/2000/svg">
<rect width="60" height="60" rx="30" fill="#3E92CC"/>
<path d="M22.08 37.2C21.36 37.2 20.6733 37.1133 20.02 36.94C19.38 36.7533 18.8067 36.4733 18.3 36.1C17.7933 35.7267 17.3867 35.2667 17.08 34.72C16.7867 34.1733 16.6333 33.5267 16.62 32.78C16.62 32.66 16.66 32.56 16.74 32.48C16.82 32.3867 16.92 32.34 17.04 32.34H18.94C19.1133 32.34 19.24 32.3867 19.32 32.48C19.4133 32.5733 19.4867 32.7 19.54 32.86C19.6067 33.34 19.76 33.7333 20 34.04C20.24 34.3333 20.54 34.5533 20.9 34.7C21.2733 34.8333 21.6867 34.9 22.14 34.9C22.98 34.9 23.62 34.6267 24.06 34.08C24.5133 33.5333 24.74 32.7733 24.74 31.8V25.36H17.96C17.8133 25.36 17.6933 25.3133 17.6 25.22C17.52 25.1267 17.48 25.0133 17.48 24.88V23.48C17.48 23.3467 17.52 23.2333 17.6 23.14C17.6933 23.0467 17.8133 23 17.96 23H27.1C27.2467 23 27.3667 23.0467 27.46 23.14C27.5533 23.2333 27.6 23.3533 27.6 23.5V31.88C27.6 32.9867 27.3667 33.94 26.9 34.74C26.4467 35.54 25.8067 36.1533 24.98 36.58C24.1667 36.9933 23.2 37.2 22.08 37.2ZM31.0869 37C30.9535 37 30.8402 36.9533 30.7469 36.86C30.6535 36.7667 30.6069 36.6533 30.6069 36.52V23.5C30.6069 23.3533 30.6535 23.2333 30.7469 23.14C30.8402 23.0467 30.9535 23 31.0869 23H35.9669C37.3135 23 38.4202 23.2067 39.2869 23.62C40.1669 24.0333 40.8269 24.6467 41.2669 25.46C41.7202 26.2733 41.9535 27.2667 41.9669 28.44C41.9935 29.0267 42.0069 29.5467 42.0069 30C42.0069 30.4533 41.9935 30.9667 41.9669 31.54C41.9402 32.78 41.7135 33.8067 41.2869 34.62C40.8602 35.42 40.2135 36.02 39.3469 36.42C38.4935 36.8067 37.4002 37 36.0669 37H31.0869ZM33.3869 34.7H35.9669C36.7135 34.7 37.3202 34.5933 37.7869 34.38C38.2535 34.1667 38.5935 33.8267 38.8069 33.36C39.0335 32.88 39.1535 32.2533 39.1669 31.48C39.1802 31.08 39.1869 30.7333 39.1869 30.44C39.2002 30.1333 39.2002 29.8333 39.1869 29.54C39.1869 29.2333 39.1802 28.8867 39.1669 28.5C39.1402 27.4067 38.8669 26.6 38.3469 26.08C37.8269 25.56 37.0002 25.3 35.8669 25.3H33.3869V34.7Z" fill="white"/>
</svg>
