<svg width="44" height="41" viewBox="0 0 44 41" fill="none" xmlns="http://www.w3.org/2000/svg">
<path d="M35.375 1C37.1984 1 38.947 1.72433 40.2364 3.01364C41.5257 4.30295 42.25 6.05164 42.25 7.875V26.2083C42.25 28.0317 41.5257 29.7804 40.2364 31.0697C38.947 32.359 37.1984 33.0833 35.375 33.0833H23.9167L12.4583 39.9583V33.0833H7.875C6.05164 33.0833 4.30295 32.359 3.01364 31.0697C1.72433 29.7804 1 28.0317 1 26.2083V7.875C1 6.05164 1.72433 4.30295 3.01364 3.01364C4.30295 1.72433 6.05164 1 7.875 1H35.375Z" stroke="#13293D" stroke-width="2" stroke-linecap="round" stroke-linejoin="round"/>
<path d="M15.8958 12.4585H15.9188" stroke="#13293D" stroke-width="2" stroke-linecap="round" stroke-linejoin="round"/>
<path d="M27.3542 12.4585H27.3771" stroke="#13293D" stroke-width="2" stroke-linecap="round" stroke-linejoin="round"/>
<path d="M15.8958 21.625C16.6426 22.3872 17.534 22.9927 18.5178 23.4061C19.5016 23.8195 20.5579 24.0324 21.625 24.0324C22.6921 24.0324 23.7484 23.8195 24.7322 23.4061C25.716 22.9927 26.6074 22.3872 27.3542 21.625" stroke="#13293D" stroke-width="2" stroke-linecap="round" stroke-linejoin="round"/>
</svg>
