<svg width="34" height="34" viewBox="0 0 34 34" fill="none" xmlns="http://www.w3.org/2000/svg">
<path d="M31.1667 0H2.83333C2.08189 0 1.36122 0.298511 0.829864 0.829864C0.298511 1.36122 0 2.08189 0 2.83333V31.1667C0 31.9181 0.298511 32.6388 0.829864 33.1701C1.36122 33.7015 2.08189 34 2.83333 34H31.1667C31.9181 34 32.6388 33.7015 33.1701 33.1701C33.7015 32.6388 34 31.9181 34 31.1667V2.83333C34 2.08189 33.7015 1.36122 33.1701 0.829864C32.6388 0.298511 31.9181 0 31.1667 0ZM31.1667 31.1667H2.83333V2.83333H31.1667V31.1667ZM17 5.66667C14.7585 5.66667 12.5673 6.33135 10.7035 7.57668C8.83978 8.822 7.38716 10.592 6.52937 12.6629C5.67157 14.7338 5.44713 17.0126 5.88443 19.211C6.32173 21.4095 7.40113 23.4289 8.98612 25.0139C10.5711 26.5989 12.5905 27.6783 14.789 28.1156C16.9874 28.5529 19.2662 28.3284 21.3371 27.4706C23.408 26.6128 25.178 25.1602 26.4233 23.2965C27.6686 21.4327 28.3333 19.2415 28.3333 17C28.3301 13.9952 27.135 11.1144 25.0103 8.98975C22.8856 6.86505 20.0048 5.66995 17 5.66667ZM17 25.5C15.3189 25.5 13.6755 25.0015 12.2777 24.0675C10.8798 23.1335 9.79037 21.806 9.14702 20.2528C8.50368 18.6996 8.33535 16.9906 8.66333 15.3417C8.9913 13.6929 9.80085 12.1783 10.9896 10.9896C12.1783 9.80085 13.6929 8.9913 15.3417 8.66333C16.9906 8.33535 18.6996 8.50368 20.2528 9.14702C21.806 9.79037 23.1335 10.8798 24.0675 12.2777C25.0015 13.6755 25.5 15.3189 25.5 17C25.4977 19.2536 24.6014 21.4143 23.0078 23.0078C21.4143 24.6014 19.2536 25.4977 17 25.5ZM29.75 6.375C29.75 6.79529 29.6254 7.20613 29.3919 7.55559C29.1584 7.90504 28.8265 8.17741 28.4382 8.33824C28.0499 8.49908 27.6226 8.54116 27.2104 8.45917C26.7982 8.37718 26.4196 8.17479 26.1224 7.8776C25.8252 7.58042 25.6228 7.20178 25.5408 6.78957C25.4588 6.37736 25.5009 5.95009 25.6618 5.5618C25.8226 5.1735 26.095 4.84163 26.4444 4.60813C26.7939 4.37463 27.2047 4.25 27.625 4.25C28.1886 4.25 28.7291 4.47388 29.1276 4.8724C29.5261 5.27091 29.75 5.81141 29.75 6.375ZM16.5856 15.169L13.7523 18.0023C13.4865 18.2681 13.1259 18.4175 12.75 18.4175C12.3741 18.4175 12.0135 18.2681 11.7477 18.0023C11.4819 17.7365 11.3325 17.3759 11.3325 17C11.3325 16.6241 11.4819 16.2635 11.7477 15.9977L14.581 13.1644C14.8469 12.8985 15.2074 12.7492 15.5833 12.7492C15.9593 12.7492 16.3198 12.8985 16.5856 13.1644C16.8514 13.4302 17.0008 13.7907 17.0008 14.1667C17.0008 14.5426 16.8514 14.9031 16.5856 15.169ZM22.2523 14.581C22.384 14.7126 22.4885 14.8689 22.5598 15.0408C22.6311 15.2128 22.6678 15.3972 22.6678 15.5833C22.6678 15.7695 22.6311 15.9539 22.5598 16.1258C22.4885 16.2978 22.384 16.4541 22.2523 16.5856L16.5856 22.2523C16.454 22.3839 16.2977 22.4883 16.1258 22.5596C15.9538 22.6308 15.7695 22.6675 15.5833 22.6675C15.3972 22.6675 15.2129 22.6308 15.0409 22.5596C14.8689 22.4883 14.7127 22.3839 14.581 22.2523C14.4494 22.1207 14.345 21.9644 14.2738 21.7924C14.2025 21.6205 14.1659 21.4361 14.1659 21.25C14.1659 21.0639 14.2025 20.8795 14.2738 20.7076C14.345 20.5356 14.4494 20.3793 14.581 20.2477L20.2477 14.581C20.3793 14.4493 20.5355 14.3448 20.7075 14.2735C20.8795 14.2022 21.0638 14.1656 21.25 14.1656C21.4362 14.1656 21.6205 14.2022 21.7925 14.2735C21.9645 14.3448 22.1207 14.4493 22.2523 14.581Z" fill="#FCFCFE"/>
</svg>
